<svg width="24" height="26" viewBox="0 0 24 26" fill="none" xmlns="http://www.w3.org/2000/svg">
<g filter="url(#filter0_d_14_2318)">
<path fill-rule="evenodd" clip-rule="evenodd" d="M13 7C13 6.44772 12.5523 6 12 6C11.4477 6 11 6.44772 11 7V11H7C6.44772 11 6 11.4477 6 12C6 12.5523 6.44772 13 7 13H11V17C11 17.5523 11.4477 18 12 18C12.5523 18 13 17.5523 13 17V13H17C17.5523 13 18 12.5523 18 12C18 11.4477 17.5523 11 17 11H13V7Z" fill="white"/>
</g>
<defs>
<filter id="filter0_d_14_2318" x="-4" y="0" width="32" height="32" filterUnits="userSpaceOnUse" color-interpolation-filters="sRGB">
<feFlood flood-opacity="0" result="BackgroundImageFix"/>
<feColorMatrix in="SourceAlpha" type="matrix" values="0 0 0 0 0 0 0 0 0 0 0 0 0 0 0 0 0 0 127 0" result="hardAlpha"/>
<feOffset dy="4"/>
<feGaussianBlur stdDeviation="2"/>
<feComposite in2="hardAlpha" operator="out"/>
<feColorMatrix type="matrix" values="0 0 0 0 0 0 0 0 0 0 0 0 0 0 0 0 0 0 0.25 0"/>
<feBlend mode="normal" in2="BackgroundImageFix" result="effect1_dropShadow_14_2318"/>
<feBlend mode="normal" in="SourceGraphic" in2="effect1_dropShadow_14_2318" result="shape"/>
</filter>
</defs>
</svg>
