<svg width="12" height="12" viewBox="0 0 12 12" fill="none" xmlns="http://www.w3.org/2000/svg">
<path fill-rule="evenodd" clip-rule="evenodd" d="M5 6.99999V10.1663C5 10.7186 5.44772 11.1663 6 11.1663C6.55229 11.1663 7 10.7186 7 10.1663V6.99999H10.1663C10.7186 6.99999 11.1663 6.55228 11.1663 5.99999C11.1663 5.44771 10.7186 4.99999 10.1663 4.99999H7V1.83333C7 1.28104 6.55229 0.833328 6 0.833328C5.44772 0.833328 5 1.28104 5 1.83333V4.99999H1.83334C1.28105 4.99999 0.833336 5.44771 0.833336 5.99999C0.833336 6.55228 1.28105 6.99999 1.83334 6.99999H5Z" fill="#353945"/>
</svg>
