<svg width="16" height="4" viewBox="0 0 16 4" fill="none" xmlns="http://www.w3.org/2000/svg">
<path d="M2.16667 0.333328C1.25 0.333328 0.5 1.08333 0.5 2C0.5 2.91666 1.25 3.66666 2.16667 3.66666C3.08333 3.66666 3.83333 2.91666 3.83333 2C3.83333 1.08333 3.08333 0.333328 2.16667 0.333328ZM13.8333 0.333328C12.9167 0.333328 12.1667 1.08333 12.1667 2C12.1667 2.91666 12.9167 3.66666 13.8333 3.66666C14.75 3.66666 15.5 2.91666 15.5 2C15.5 1.08333 14.75 0.333328 13.8333 0.333328ZM8 0.333328C7.08333 0.333328 6.33333 1.08333 6.33333 2C6.33333 2.91666 7.08333 3.66666 8 3.66666C8.91667 3.66666 9.66667 2.91666 9.66667 2C9.66667 1.08333 8.91667 0.333328 8 0.333328Z" fill="#353945"/>
</svg>
